<svg xmlns="http://www.w3.org/2000/svg" fill="none" viewBox="0 0 48 48"><path fill="#42CC81" d="M13.317 10.637c4.904-5.853 12.665-6.681 16.476-6.23-11.63-2.584-18.385 4.462-20.308 8.309-4.984 9.415-.692 17.461 2.077 20.307-3.115-5.632-3.224-10.661-2.432-14.191.675-3.012 2.206-5.83 4.187-8.195Z"/><path fill="#3B89FF" d="M41.185 11.173c-.641-3.437-2.588-6.51-5.623-8.842 11.977 4.823 11.23 20.384 9 25.154-4.43 10.892-14 13.769-18.23 13.846-5.724 0-9.308-1.693-10.385-2.539 2.769.739 6.23.616 7.615.462 5.17-.923 7.077-6.077 7.385-8.539 1.292-5.907-2.846-14-5.077-17.307l7.615 5.077c.191.145.379.28.563.403 4.088 2.738 8.038-2.878 7.137-7.715Z"/><ellipse cx="35.321" cy="13.019" fill="#3B89FF" rx="3.231" ry="3.923" transform="rotate(-25.508 35.321 13.019)"/><path fill="#42CC81" d="M21.255 20.562v3.461h3.461v2.308h-3.461v3.461h-2.308v-3.461h-3.462v-2.308h3.462v-3.461h2.308Z"/><path fill="#3B89FF" fill-rule="evenodd" d="M24 48c13.255 0 24-10.745 24-24 0-.316-.006-.63-.018-.943-.474 11.817-10.203 21.25-22.136 21.25-12.235 0-22.154-9.918-22.154-22.153 0-11.932 9.434-21.661 21.25-22.136A24.42 24.42 0 0 0 24 0C10.745 0 0 10.745 0 24s10.745 24 24 24Z" clip-rule="evenodd"/></svg>